<?xml version="1.0" encoding="utf-8"?>
<!-- Generated by Mocodo 4.3.2 -->
<svg width="851" height="828" viewBox="0 0 851 828" xmlns="http://www.w3.org/2000/svg">
<rect x="0" y="0" width="851" height="828" fill="#f5f5f5" stroke="none" stroke-width="0"/>

<!-- Association HAS_ROLE -->
<g>
	<path d="M526 220 C469.51 214.12 424.85 157.79 392 51" fill="none" stroke="#35978f" stroke-width="2"/>
	<line x1="269" y1="51" x2="392" y2="51" stroke="#35978f" stroke-width="2"/>
	<g>
		<path d="M417 26 a14 14 90 0 1 14 14 V51 h-78 V40 a14 14 90 0 1 14 -14" fill="#80cdc1" stroke="#80cdc1" stroke-width="0"/>
		<path d="M431 51 v11 a14 14 90 0 1 -14 14 H367 a14 14 90 0 1 -14 -14 V51 H78" fill="#c7eae5" stroke="#c7eae5" stroke-width="0"/>
		<rect x="353" y="26" width="78" height="50" fill="none" rx="14" stroke="#35978f" stroke-width="2"/>
		<line x1="353" y1="51" x2="431" y2="51" stroke="#35978f" stroke-width="1"/>
		<text x="361" y="43.75" fill="#000000" font-family="Verdana" font-size="12">HAS ROLE</text>
	</g>
	<text x="463" y="180.92" fill="#8c510a" font-family="Verdana" font-size="12">0,N</text>
	<text x="310" y="68" fill="#8c510a" font-family="Verdana" font-size="12">1,1</text>
</g>

<!-- Association RATES_DRIVER -->
<g>
	<path d="M526 220 C483.33 123.67 483.33 67.33 526 51" fill="none" stroke="#35978f" stroke-width="2"/>
	<path d="M526 220 C568.67 123.67 568.67 67.33 526 51" fill="none" stroke="#35978f" stroke-width="2"/>
	<g>
		<path d="M568 9 a14 14 90 0 1 14 14 V34 h-112 V23 a14 14 90 0 1 14 -14" fill="#80cdc1" stroke="#80cdc1" stroke-width="0"/>
		<path d="M582 34 v45 a14 14 90 0 1 -14 14 H484 a14 14 90 0 1 -14 -14 V34 H112" fill="#c7eae5" stroke="#c7eae5" stroke-width="0"/>
		<rect x="470" y="9" width="112" height="84" fill="none" rx="14" stroke="#35978f" stroke-width="2"/>
		<line x1="470" y1="34" x2="582" y2="34" stroke="#35978f" stroke-width="1"/>
		<text x="480" y="26.75" fill="#000000" font-family="Verdana" font-size="12">RATES DRIVER</text>
		<text x="477" y="51.8" fill="#000000" font-family="Verdana" font-size="12">rating id</text>
		<text x="477" y="68.8" fill="#000000" font-family="Verdana" font-size="12">driver rating</text>
		<text x="477" y="85.8" fill="#000000" font-family="Verdana" font-size="12">driver comment</text>
	</g>
	<text x="500" y="110" fill="#8c510a" font-family="Verdana" font-size="12">0,N</text>
	<text x="530" y="110" fill="#8c510a" font-family="Verdana" font-size="12">0,N</text>
</g>

<!-- Association BELONGS_TO -->
<g>
	<line x1="269" y1="220" x2="392" y2="220" stroke="#35978f" stroke-width="2"/>
	<line x1="526" y1="220" x2="392" y2="220" stroke="#35978f" stroke-width="2"/>
	<g>
		<path d="M426 195 a14 14 90 0 1 14 14 V220 h-96 V209 a14 14 90 0 1 14 -14" fill="#80cdc1" stroke="#80cdc1" stroke-width="0"/>
		<path d="M440 220 v11 a14 14 90 0 1 -14 14 H358 a14 14 90 0 1 -14 -14 V220 H96" fill="#c7eae5" stroke="#c7eae5" stroke-width="0"/>
		<rect x="344" y="195" width="96" height="50" fill="none" rx="14" stroke="#35978f" stroke-width="2"/>
		<line x1="344" y1="220" x2="440" y2="220" stroke="#35978f" stroke-width="1"/>
		<text x="352" y="212.75" fill="#000000" font-family="Verdana" font-size="12">BELONGS TO</text>
	</g>
	<text x="309" y="237" fill="#8c510a" font-family="Verdana" font-size="12">0,N</text>
	<text x="464" y="237" fill="#8c510a" font-family="Verdana" font-size="12">1,1</text>
</g>

<!-- Association RATES_VEHICLE -->
<g>
	<line x1="653" y1="372" x2="653" y2="220" stroke="#35978f" stroke-width="2"/>
	<line x1="526" y1="220" x2="653" y2="220" stroke="#35978f" stroke-width="2"/>
	<g>
		<path d="M698 186 a14 14 90 0 1 14 14 V211 h-118 V200 a14 14 90 0 1 14 -14" fill="#80cdc1" stroke="#80cdc1" stroke-width="0"/>
		<path d="M712 211 v29 a14 14 90 0 1 -14 14 H608 a14 14 90 0 1 -14 -14 V211 H118" fill="#c7eae5" stroke="#c7eae5" stroke-width="0"/>
		<rect x="594" y="186" width="118" height="68" fill="none" rx="14" stroke="#35978f" stroke-width="2"/>
		<line x1="594" y1="211" x2="712" y2="211" stroke="#35978f" stroke-width="1"/>
		<text x="604" y="203.75" fill="#000000" font-family="Verdana" font-size="12">RATES VEHICLE</text>
		<text x="601" y="228.8" fill="#000000" font-family="Verdana" font-size="12">vehicle rating</text>
		<text x="601" y="245.8" fill="#000000" font-family="Verdana" font-size="12">vehicle comment</text>
	</g>
	<text x="658" y="296" fill="#8c510a" font-family="Verdana" font-size="12">0,N</text>
	<text x="567" y="237" fill="#8c510a" font-family="Verdana" font-size="12">0,N</text>
</g>

<!-- Association LINKED_TO -->
<g>
	<line x1="269" y1="372" x2="392" y2="372" stroke="#35978f" stroke-width="2"/>
	<line x1="526" y1="220" x2="392" y2="372" stroke="#35978f" stroke-width="2"/>
	<g>
		<path d="M419 347 a14 14 90 0 1 14 14 V372 h-82 V361 a14 14 90 0 1 14 -14" fill="#80cdc1" stroke="#80cdc1" stroke-width="0"/>
		<path d="M433 372 v11 a14 14 90 0 1 -14 14 H365 a14 14 90 0 1 -14 -14 V372 H82" fill="#c7eae5" stroke="#c7eae5" stroke-width="0"/>
		<rect x="351" y="347" width="82" height="50" fill="none" rx="14" stroke="#35978f" stroke-width="2"/>
		<line x1="351" y1="372" x2="433" y2="372" stroke="#35978f" stroke-width="1"/>
		<text x="358" y="364.75" fill="#000000" font-family="Verdana" font-size="12">LINKED TO</text>
	</g>
	<text x="319" y="389" fill="#8c510a" font-family="Verdana" font-size="12">1,1</text>
	<text x="464" y="259.28" fill="#8c510a" font-family="Verdana" font-size="12">0,1</text>
</g>

<!-- Association VALIDATES -->
<g>
	<line x1="526" y1="541" x2="526" y2="372" stroke="#35978f" stroke-width="2"/>
	<line x1="526" y1="220" x2="526" y2="372" stroke="#35978f" stroke-width="2"/>
	<g>
		<path d="M554 347 a14 14 90 0 1 14 14 V372 h-84 V361 a14 14 90 0 1 14 -14" fill="#80cdc1" stroke="#80cdc1" stroke-width="0"/>
		<path d="M568 372 v11 a14 14 90 0 1 -14 14 H498 a14 14 90 0 1 -14 -14 V372 H84" fill="#c7eae5" stroke="#c7eae5" stroke-width="0"/>
		<rect x="484" y="347" width="84" height="50" fill="none" rx="14" stroke="#35978f" stroke-width="2"/>
		<line x1="484" y1="372" x2="568" y2="372" stroke="#35978f" stroke-width="1"/>
		<text x="491" y="364.75" fill="#000000" font-family="Verdana" font-size="12">VALIDATES</text>
	</g>
	<text x="531" y="457" fill="#8c510a" font-family="Verdana" font-size="12">0,1</text>
	<text x="531" y="339" fill="#8c510a" font-family="Verdana" font-size="12">1,N</text>
</g>

<!-- Association HAS_TYPE -->
<g>
	<line x1="653" y1="372" x2="793" y2="372" stroke="#35978f" stroke-width="2"/>
	<line x1="793" y1="220" x2="793" y2="372" stroke="#35978f" stroke-width="2"/>
	<g>
		<path d="M816 347 a14 14 90 0 1 14 14 V372 h-74 V361 a14 14 90 0 1 14 -14" fill="#80cdc1" stroke="#80cdc1" stroke-width="0"/>
		<path d="M830 372 v11 a14 14 90 0 1 -14 14 H770 a14 14 90 0 1 -14 -14 V372 H74" fill="#c7eae5" stroke="#c7eae5" stroke-width="0"/>
		<rect x="756" y="347" width="74" height="50" fill="none" rx="14" stroke="#35978f" stroke-width="2"/>
		<line x1="756" y1="372" x2="830" y2="372" stroke="#35978f" stroke-width="1"/>
		<text x="763" y="364.75" fill="#000000" font-family="Verdana" font-size="12">HAS TYPE</text>
	</g>
	<text x="704" y="389" fill="#8c510a" font-family="Verdana" font-size="12">0,N</text>
	<text x="798" y="271" fill="#8c510a" font-family="Verdana" font-size="12">1,1</text>
</g>

<!-- Association LOGS -->
<g>
	<line x1="269" y1="541" x2="172" y2="541" stroke="#35978f" stroke-width="2"/>
	<line x1="62" y1="541" x2="172" y2="541" stroke="#35978f" stroke-width="2"/>
	<g>
		<path d="M183 516 a14 14 90 0 1 14 14 V541 h-50 V530 a14 14 90 0 1 14 -14" fill="#80cdc1" stroke="#80cdc1" stroke-width="0"/>
		<path d="M197 541 v11 a14 14 90 0 1 -14 14 H161 a14 14 90 0 1 -14 -14 V541 H50" fill="#c7eae5" stroke="#c7eae5" stroke-width="0"/>
		<rect x="147" y="516" width="50" height="50" fill="none" rx="14" stroke="#35978f" stroke-width="2"/>
		<line x1="147" y1="541" x2="197" y2="541" stroke="#35978f" stroke-width="1"/>
		<text x="155" y="533.75" fill="#000000" font-family="Verdana" font-size="12">LOGS</text>
	</g>
	<text x="203" y="558" fill="#8c510a" font-family="Verdana" font-size="12">1,1</text>
	<text x="120" y="558" fill="#8c510a" font-family="Verdana" font-size="12">0,N</text>
</g>

<!-- Association CONTAINS -->
<g>
	<line x1="526" y1="541" x2="392" y2="541" stroke="#35978f" stroke-width="2"/>
	<line x1="269" y1="541" x2="392" y2="541" stroke="#35978f" stroke-width="2"/>
	<g>
		<path d="M429 516 a14 14 90 0 1 14 14 V541 h-102 V530 a14 14 90 0 1 14 -14" fill="#80cdc1" stroke="#80cdc1" stroke-width="0"/>
		<path d="M443 541 v11 a14 14 90 0 1 -14 14 H355 a14 14 90 0 1 -14 -14 V541 H102" fill="#c7eae5" stroke="#c7eae5" stroke-width="0"/>
		<rect x="341" y="516" width="102" height="50" fill="none" rx="14" stroke="#35978f" stroke-width="2"/>
		<line x1="341" y1="541" x2="443" y2="541" stroke="#35978f" stroke-width="1"/>
		<text x="359" y="533.75" fill="#000000" font-family="Verdana" font-size="12">CONTAINS</text>
		<text x="348" y="558.8" fill="#000000" font-family="Verdana" font-size="12">detection time</text>
	</g>
	<text x="448" y="558" fill="#8c510a" font-family="Verdana" font-size="12">0,N</text>
	<text x="314" y="558" fill="#8c510a" font-family="Verdana" font-size="12">0,N</text>
</g>

<!-- Association PERFORMS -->
<g>
	<line x1="526" y1="541" x2="653" y2="541" stroke="#35978f" stroke-width="2"/>
	<line x1="653" y1="372" x2="653" y2="541" stroke="#35978f" stroke-width="2"/>
	<g>
		<path d="M680 516 a14 14 90 0 1 14 14 V541 h-82 V530 a14 14 90 0 1 14 -14" fill="#80cdc1" stroke="#80cdc1" stroke-width="0"/>
		<path d="M694 541 v11 a14 14 90 0 1 -14 14 H626 a14 14 90 0 1 -14 -14 V541 H82" fill="#c7eae5" stroke="#c7eae5" stroke-width="0"/>
		<rect x="612" y="516" width="82" height="50" fill="none" rx="14" stroke="#35978f" stroke-width="2"/>
		<line x1="612" y1="541" x2="694" y2="541" stroke="#35978f" stroke-width="1"/>
		<text x="620" y="533.75" fill="#000000" font-family="Verdana" font-size="12">PERFORMS</text>
	</g>
	<text x="582" y="558" fill="#8c510a" font-family="Verdana" font-size="12">1,1</text>
	<text x="658" y="457" fill="#8c510a" font-family="Verdana" font-size="12">0,N</text>
</g>

<!-- Association BOOK -->
<g>
	<line x1="526" y1="785" x2="526" y2="684" stroke="#35978f" stroke-width="2"/>
	<line x1="526" y1="541" x2="526" y2="684" stroke="#35978f" stroke-width="2"/>
	<g>
		<path d="M558 642 a14 14 90 0 1 14 14 V667 h-92 V656 a14 14 90 0 1 14 -14" fill="#80cdc1" stroke="#80cdc1" stroke-width="0"/>
		<path d="M572 667 v45 a14 14 90 0 1 -14 14 H494 a14 14 90 0 1 -14 -14 V667 H92" fill="#c7eae5" stroke="#c7eae5" stroke-width="0"/>
		<rect x="480" y="642" width="92" height="84" fill="none" rx="14" stroke="#35978f" stroke-width="2"/>
		<line x1="480" y1="667" x2="572" y2="667" stroke="#35978f" stroke-width="1"/>
		<text x="508" y="659.75" fill="#000000" font-family="Verdana" font-size="12">BOOK</text>
		<text x="487" y="684.8" fill="#000000" font-family="Verdana" font-size="12">option</text>
		<text x="487" y="701.8" fill="#000000" font-family="Verdana" font-size="12">applied price</text>
		<text x="487" y="718.8" fill="#000000" font-family="Verdana" font-size="12">is sponsored</text>
	</g>
	<text x="531" y="743" fill="#8c510a" font-family="Verdana" font-size="12">0,N</text>
	<text x="531" y="634" fill="#8c510a" font-family="Verdana" font-size="12">0,N</text>
</g>

<!-- Entity ROLE -->
<g>
	<g>
		<rect x="233" y="17" width="72" height="25" fill="#dfc27d" stroke="none" stroke-width="0" opacity="1"/>
		<rect x="233" y="42" width="72" height="43" fill="#f6e8c3" stroke="none" stroke-width="0" opacity="1"/>
		<rect x="233" y="17" width="72" height="68" fill="none" stroke="#bf812d" stroke-width="2" opacity="1"/>
		<line x1="233" y1="42" x2="305" y2="42" stroke="#bf812d" stroke-width="1"/>
	</g>
	<text x="253" y="34.75" fill="#000000" font-family="Verdana" font-size="12">ROLE</text>
	<text x="238" y="59.8" fill="#000000" font-family="Verdana" font-size="12">role code</text>
	<line x1="238" y1="62" x2="294" y2="62" stroke="#000000" stroke-width="1"/>
	<text x="238" y="76.8" fill="#000000" font-family="Verdana" font-size="12">role name</text>
</g>

<!-- Entity CITY -->
<g>
	<g>
		<rect x="234" y="186" width="70" height="25" fill="#dfc27d" stroke="none" stroke-width="0" opacity="1"/>
		<rect x="234" y="211" width="70" height="43" fill="#f6e8c3" stroke="none" stroke-width="0" opacity="1"/>
		<rect x="234" y="186" width="70" height="68" fill="none" stroke="#bf812d" stroke-width="2" opacity="1"/>
		<line x1="234" y1="211" x2="304" y2="211" stroke="#bf812d" stroke-width="1"/>
	</g>
	<text x="255" y="203.75" fill="#000000" font-family="Verdana" font-size="12">CITY</text>
	<text x="239" y="228.8" fill="#000000" font-family="Verdana" font-size="12">zip code</text>
	<line x1="239" y1="231" x2="290" y2="231" stroke="#000000" stroke-width="1"/>
	<text x="239" y="245.8" fill="#000000" font-family="Verdana" font-size="12">city name</text>
</g>

<!-- Entity USER -->
<g>
	<g>
		<rect x="490" y="118" width="72" height="25" fill="#dfc27d" stroke="none" stroke-width="0" opacity="1"/>
		<rect x="490" y="143" width="72" height="179" fill="#f6e8c3" stroke="none" stroke-width="0" opacity="1"/>
		<rect x="490" y="118" width="72" height="204" fill="none" stroke="#bf812d" stroke-width="2" opacity="1"/>
		<line x1="490" y1="143" x2="562" y2="143" stroke="#bf812d" stroke-width="1"/>
	</g>
	<text x="509" y="135.75" fill="#000000" font-family="Verdana" font-size="12">USER</text>
	<text x="495" y="160.8" fill="#000000" font-family="Verdana" font-size="12">user id</text>
	<line x1="495" y1="163" x2="537" y2="163" stroke="#000000" stroke-width="1"/>
	<text x="495" y="177.8" fill="#000000" font-family="Verdana" font-size="12">email</text>
	<text x="495" y="194.8" fill="#000000" font-family="Verdana" font-size="12">password</text>
	<text x="495" y="211.8" fill="#000000" font-family="Verdana" font-size="12">last name</text>
	<text x="495" y="228.8" fill="#000000" font-family="Verdana" font-size="12">first name</text>
	<text x="495" y="245.8" fill="#000000" font-family="Verdana" font-size="12">phone</text>
	<text x="495" y="262.8" fill="#000000" font-family="Verdana" font-size="12">photo</text>
	<text x="495" y="279.8" fill="#000000" font-family="Verdana" font-size="12">selfie</text>
	<text x="495" y="296.8" fill="#000000" font-family="Verdana" font-size="12">is verified</text>
	<text x="495" y="313.8" fill="#000000" font-family="Verdana" font-size="12">join date</text>
</g>

<!-- Entity VEHICLE_TYPE -->
<g>
	<g>
		<rect x="744" y="186" width="98" height="25" fill="#dfc27d" stroke="none" stroke-width="0" opacity="1"/>
		<rect x="744" y="211" width="98" height="43" fill="#f6e8c3" stroke="none" stroke-width="0" opacity="1"/>
		<rect x="744" y="186" width="98" height="68" fill="none" stroke="#bf812d" stroke-width="2" opacity="1"/>
		<line x1="744" y1="211" x2="842" y2="211" stroke="#bf812d" stroke-width="1"/>
	</g>
	<text x="750" y="203.75" fill="#000000" font-family="Verdana" font-size="12">VEHICLE TYPE</text>
	<text x="749" y="228.8" fill="#000000" font-family="Verdana" font-size="12">veh type code</text>
	<line x1="749" y1="231" x2="835" y2="231" stroke="#000000" stroke-width="1"/>
	<text x="749" y="245.8" fill="#000000" font-family="Verdana" font-size="12">label</text>
</g>

<!-- Entity DOCUMENTS -->
<g>
	<g>
		<rect x="224" y="321" width="90" height="25" fill="#dfc27d" stroke="none" stroke-width="0" opacity="1"/>
		<rect x="224" y="346" width="90" height="77" fill="#f6e8c3" stroke="none" stroke-width="0" opacity="1"/>
		<rect x="224" y="321" width="90" height="102" fill="none" stroke="#bf812d" stroke-width="2" opacity="1"/>
		<line x1="224" y1="346" x2="314" y2="346" stroke="#bf812d" stroke-width="1"/>
	</g>
	<text x="230" y="338.75" fill="#000000" font-family="Verdana" font-size="12">DOCUMENTS</text>
	<text x="229" y="363.8" fill="#000000" font-family="Verdana" font-size="12">doc code</text>
	<line x1="229" y1="366" x2="283" y2="366" stroke="#000000" stroke-width="1"/>
	<text x="229" y="380.8" fill="#000000" font-family="Verdana" font-size="12">doc type</text>
	<text x="229" y="397.8" fill="#000000" font-family="Verdana" font-size="12">back url</text>
	<text x="229" y="414.8" fill="#000000" font-family="Verdana" font-size="12">front url</text>
</g>

<!-- Entity VEHICLE -->
<g>
	<g>
		<rect x="607" y="304" width="92" height="25" fill="#dfc27d" stroke="none" stroke-width="0" opacity="1"/>
		<rect x="607" y="329" width="92" height="111" fill="#f6e8c3" stroke="none" stroke-width="0" opacity="1"/>
		<rect x="607" y="304" width="92" height="136" fill="none" stroke="#bf812d" stroke-width="2" opacity="1"/>
		<line x1="607" y1="329" x2="699" y2="329" stroke="#bf812d" stroke-width="1"/>
	</g>
	<text x="626" y="321.75" fill="#000000" font-family="Verdana" font-size="12">VEHICLE</text>
	<text x="612" y="346.8" fill="#000000" font-family="Verdana" font-size="12">vehicle id</text>
	<line x1="612" y1="349" x2="670" y2="349" stroke="#000000" stroke-width="1"/>
	<text x="612" y="363.8" fill="#000000" font-family="Verdana" font-size="12">plate number</text>
	<text x="612" y="380.8" fill="#000000" font-family="Verdana" font-size="12">brand</text>
	<text x="612" y="397.8" fill="#000000" font-family="Verdana" font-size="12">model</text>
	<text x="612" y="414.8" fill="#000000" font-family="Verdana" font-size="12">color</text>
	<text x="612" y="431.8" fill="#000000" font-family="Verdana" font-size="12">year</text>
</g>

<!-- Entity INCIDENT_TYPE -->
<g>
	<g>
		<rect x="9" y="507" width="106" height="25" fill="#dfc27d" stroke="none" stroke-width="0" opacity="1"/>
		<rect x="9" y="532" width="106" height="43" fill="#f6e8c3" stroke="none" stroke-width="0" opacity="1"/>
		<rect x="9" y="507" width="106" height="68" fill="none" stroke="#bf812d" stroke-width="2" opacity="1"/>
		<line x1="9" y1="532" x2="115" y2="532" stroke="#bf812d" stroke-width="1"/>
	</g>
	<text x="14" y="524.75" fill="#000000" font-family="Verdana" font-size="12">INCIDENT TYPE</text>
	<text x="14" y="549.8" fill="#000000" font-family="Verdana" font-size="12">inc type code</text>
	<line x1="14" y1="552" x2="95" y2="552" stroke="#000000" stroke-width="1"/>
	<text x="14" y="566.8" fill="#000000" font-family="Verdana" font-size="12">label</text>
</g>

<!-- Entity INCIDENT -->
<g>
	<g>
		<rect x="229" y="490" width="80" height="25" fill="#dfc27d" stroke="none" stroke-width="0" opacity="1"/>
		<rect x="229" y="515" width="80" height="77" fill="#f6e8c3" stroke="none" stroke-width="0" opacity="1"/>
		<rect x="229" y="490" width="80" height="102" fill="none" stroke="#bf812d" stroke-width="2" opacity="1"/>
		<line x1="229" y1="515" x2="309" y2="515" stroke="#bf812d" stroke-width="1"/>
	</g>
	<text x="238" y="507.75" fill="#000000" font-family="Verdana" font-size="12">INCIDENT</text>
	<text x="234" y="532.8" fill="#000000" font-family="Verdana" font-size="12">incident ref</text>
	<line x1="234" y1="535" x2="303" y2="535" stroke="#000000" stroke-width="1"/>
	<text x="234" y="549.8" fill="#000000" font-family="Verdana" font-size="12">timestamp</text>
	<text x="234" y="566.8" fill="#000000" font-family="Verdana" font-size="12">description</text>
	<text x="234" y="583.8" fill="#000000" font-family="Verdana" font-size="12">is resolved</text>
</g>

<!-- Entity RIDE -->
<g>
	<g>
		<rect x="475" y="465" width="102" height="25" fill="#dfc27d" stroke="none" stroke-width="0" opacity="1"/>
		<rect x="475" y="490" width="102" height="127" fill="#f6e8c3" stroke="none" stroke-width="0" opacity="1"/>
		<rect x="475" y="465" width="102" height="152" fill="none" stroke="#bf812d" stroke-width="2" opacity="1"/>
		<line x1="475" y1="490" x2="577" y2="490" stroke="#bf812d" stroke-width="1"/>
	</g>
	<text x="511" y="482.75" fill="#000000" font-family="Verdana" font-size="12">RIDE</text>
	<text x="480" y="507.8" fill="#000000" font-family="Verdana" font-size="12">ride ref</text>
	<line x1="480" y1="510" x2="525" y2="510" stroke="#000000" stroke-width="1"/>
	<text x="480" y="524.8" fill="#000000" font-family="Verdana" font-size="12">creation date</text>
	<text x="480" y="541.8" fill="#000000" font-family="Verdana" font-size="12">start point</text>
	<text x="480" y="558.8" fill="#000000" font-family="Verdana" font-size="12">end point</text>
	<text x="480" y="575.8" fill="#000000" font-family="Verdana" font-size="12">status</text>
	<text x="480" y="592.8" fill="#000000" font-family="Verdana" font-size="12">distance</text>
	<text x="480" y="609.8" fill="#000000" font-family="Verdana" font-size="12">estimated time</text>
</g>

<!-- Entity TRACK_TYPE -->
<g>
	<g>
		<rect x="473" y="751" width="106" height="25" fill="#dfc27d" stroke="none" stroke-width="0" opacity="1"/>
		<rect x="473" y="776" width="106" height="43" fill="#f6e8c3" stroke="none" stroke-width="0" opacity="1"/>
		<rect x="473" y="751" width="106" height="68" fill="none" stroke="#bf812d" stroke-width="2" opacity="1"/>
		<line x1="473" y1="776" x2="579" y2="776" stroke="#bf812d" stroke-width="1"/>
	</g>
	<text x="489" y="768.75" fill="#000000" font-family="Verdana" font-size="12">TRACK TYPE</text>
	<text x="478" y="793.8" fill="#000000" font-family="Verdana" font-size="12">track type code</text>
	<line x1="478" y1="796" x2="573" y2="796" stroke="#000000" stroke-width="1"/>
	<text x="478" y="810.8" fill="#000000" font-family="Verdana" font-size="12">name</text>
</g>
</svg>